HIERARCHY
ROOT Hips
{
	OFFSET 0.00000 0.00000 0.00000
	CHANNELS 6 Xposition Yposition Zposition Zrotation Yrotation Xrotation 
	JOINT LHipJoint
	{
		OFFSET 0 0 0
		CHANNELS 3 Zrotation Yrotation Xrotation
		JOINT LeftHip
		{
			OFFSET 1.17584 -1.63585 1.00361
			CHANNELS 3 Zrotation Yrotation Xrotation
			JOINT LeftKnee
			{
				OFFSET 2.23889 -6.15131 0.00000
				CHANNELS 3 Zrotation Yrotation Xrotation
				JOINT LeftAnkle
				{
					OFFSET 2.65161 -7.28525 0.00000
					CHANNELS 3 Zrotation Yrotation Xrotation
					JOINT LeftToe
					{
						OFFSET 0.24898 -0.68407 1.57235
						CHANNELS 3 Zrotation Yrotation Xrotation
						End Site
						{
							OFFSET 0.00000 -0.00000 0.85838
						}
					}
				}
			}
		}
	}
	JOINT RHipJoint
	{
		OFFSET 0 0 0
		CHANNELS 3 Zrotation Yrotation Xrotation
		JOINT RightHip
		{
			OFFSET -1.15592 -1.63585 1.00361
			CHANNELS 3 Zrotation Yrotation Xrotation
			JOINT RightKnee
			{
				OFFSET -2.34071 -6.43104 0.00000
				CHANNELS 3 Zrotation Yrotation Xrotation
				JOINT RightAnkle
				{
					OFFSET -2.59113 -7.11908 0.00000
					CHANNELS 3 Zrotation Yrotation Xrotation
					JOINT RightToe
					{
						OFFSET -0.17867 -0.49089 1.70981
						CHANNELS 3 Zrotation Yrotation Xrotation
						End Site
						{
							OFFSET -0.00000 -0.00000 0.89861
						}
					}
				}
			}
		}
	}
	JOINT lowerback
	{
		OFFSET 0 0 0
		CHANNELS 3 Zrotation Yrotation Xrotation
		JOINT Chest
		{
			OFFSET -0.02255 1.90764 -0.16605
			CHANNELS 3 Zrotation Yrotation Xrotation
			JOINT Chest2
			{
				OFFSET -0.00365 1.92150 -0.04898
				CHANNELS 3 Zrotation Yrotation Xrotation
				JOINT lowerneck
				{
					OFFSET 0 0 0
					CHANNELS 3 Zrotation Yrotation Xrotation
					JOINT Neck
					{
						OFFSET 0.00372 1.59170 0.08694
						CHANNELS 3 Zrotation Yrotation Xrotation
						JOINT Head
						{
							OFFSET 0.12558 1.58643 -0.08078
							CHANNELS 3 Zrotation Yrotation Xrotation
							End Site
							{
								OFFSET 0.04211 1.60835 -0.03803
							}
						}
					}
				}
				JOINT LeftCollar
				{
					OFFSET 0 0 0
					CHANNELS 3 Zrotation Yrotation Xrotation
					JOINT LeftShoulder
					{
						OFFSET 3.69324 0.96316 0.19077
CHANNELS 3 Zrotation Xrotation Yrotation
						JOINT LeftElbow
						{
OFFSET 0 -4.877960 -0.000000
CHANNELS 3 Zrotation Xrotation Yrotation
							JOINT LeftWrist
							{
OFFSET 0 -3.231690 0.000000
CHANNELS 3 Zrotation Xrotation Yrotation
								JOINT lhand
								{
									OFFSET 0 0 0
CHANNELS 3 Zrotation Xrotation Yrotation
									JOINT LFingers
									{
OFFSET 0 -0.731320 0.000000
CHANNELS 3 Zrotation Xrotation Yrotation
										End Site
										{
OFFSET 0 -0.589610 0.000000
										}
									}
								}
								JOINT LThumb
								{
OFFSET 0 0.000000 0.000000
CHANNELS 3 Zrotation Xrotation Yrotation
									End Site
									{
OFFSET 0 -0.598610 0.598610
									}
								}
							}
						}
					}
				}
				JOINT RightCollar
				{
					OFFSET 0 0 0
					CHANNELS 3 Zrotation Yrotation Xrotation
					JOINT RightShoulder
					{
						OFFSET -3.66103 0.75145 0.08281
CHANNELS 3 Zrotation Xrotation Yrotation
						JOINT RightElbow
						{
OFFSET 0 -4.914300 0.000000
CHANNELS 3 Zrotation Xrotation Yrotation
							JOINT RightWrist
							{
OFFSET 0 -3.290930 0.000000
CHANNELS 3 Zrotation Xrotation Yrotation
								JOINT rhand
								{
									OFFSET 0 0 0
CHANNELS 3 Zrotation Xrotation Yrotation
									JOINT RFingers
									{
OFFSET 0 -0.545120 0.000000
CHANNELS 3 Zrotation Xrotation Yrotation
										End Site
										{
OFFSET 0 -0.439490 0.000000
										}
									}
								}
								JOINT RThumb
								{
OFFSET 0 0.000000 0.000000
CHANNELS 3 Zrotation Xrotation Yrotation
									End Site
									{
OFFSET 0 -0.446200 0.446200
									}
								}
							}
						}
					}
				}
			}
		}
	}
}
MOTION
Frames: 5
Frame Time: 0.008333333333333333
10.401007 13.920360 -5.412418 459.027346 -94.067555 -435.769710 0.000000 0.000000 0.000000 -12.676403 6.404643 -99.487733 7.675929 15.875622 51.386806 0.182883 10.360449 9.900843 2.489918 -9.818577 -28.392056 0.000000 0.000000 0.000000 -7.727783 -33.025451 -24.401160 -11.640744 -18.234040 64.844861 0.541109 13.902163 -0.460008 -0.954574 6.221417 -17.428290 9.065376 4.108932 5.105255 0.510096 5.068169 9.237128 -4.397856 2.962060 7.740357 1.126276 5.622639 -2.777356 -12.529412 5.186689 -20.644221 -4.311850 3.019078 -5.326838 0.000000 0.000000 0.000000 64.469944 53.635336 -46.653828 11.288298 -18.728602 1.867497 33.331739 -46.136260 0.180991 0.000000 0.000000 0.000000 -7.125000 0.000000 0.000000 5.317618 29.742787 1.986454 0.000000 0.000000 0.000000 -18.639207 66.529723 75.905645 -22.668046 -33.715955 -6.956586 -21.827502 9.652667 25.222143 0.000000 0.000000 0.000000 7.125000 0.000000 0.000000 8.604122 56.675663 -2.478609
9.840328 13.721113 -5.391035 490.346376 -97.664893 -469.676993 0.000000 0.000000 0.000000 -17.225986 5.750600 -100.030157 7.790757 15.963162 51.805584 0.278382 10.690171 11.249772 1.958277 -8.778428 -25.104726 0.000000 0.000000 0.000000 -8.747993 -31.688637 -13.415609 -11.105568 -17.986349 63.123767 0.329024 11.481898 -1.608409 -0.992028 6.338874 -17.770941 8.486284 4.650493 4.913730 0.868176 5.840946 8.651436 -3.684740 3.273241 7.193647 0.599975 4.896682 -3.052137 -11.745597 4.256763 -20.883557 -3.954828 2.555228 -5.467621 0.000000 0.000000 0.000000 63.057867 55.235145 -43.163583 10.918939 -18.163885 1.750564 33.026475 -44.633638 0.532410 0.000000 0.000000 0.000000 -7.125000 0.000000 0.000000 5.056172 29.327812 1.938420 0.000000 0.000000 0.000000 -14.365008 65.464949 69.353383 -20.327933 -31.035319 -5.699498 -20.855643 8.892704 26.425159 0.000000 0.000000 0.000000 7.125000 0.000000 0.000000 10.209755 57.691478 -3.194389
9.271578 13.503928 -5.386169 498.287538 -101.853382 -480.478533 0.000000 0.000000 0.000000 -20.010397 5.624833 -98.983392 8.359790 16.375685 53.845480 0.373222 7.270051 11.326727 1.210517 -6.948071 -19.574760 0.000000 0.000000 0.000000 -8.116513 -29.263515 -2.707459 -10.424161 -17.640074 60.894907 0.111404 8.654485 -3.643868 -0.915582 6.094988 -17.060816 7.494982 5.057134 4.654423 1.127861 6.442137 7.945669 -2.873336 3.483423 6.471612 -0.183256 4.090432 -3.354052 -10.475662 3.302542 -21.114968 -3.393393 2.069625 -5.609238 0.000000 0.000000 0.000000 61.242630 56.573845 -38.357349 10.412909 -17.382455 1.596386 32.684884 -42.870091 0.784022 0.000000 0.000000 0.000000 -7.125000 0.000000 0.000000 4.774087 29.034136 1.862859 0.000000 0.000000 0.000000 -10.894414 63.695837 63.173016 -18.011559 -28.164054 -4.558750 -20.440190 8.919850 27.271572 0.000000 0.000000 0.000000 7.125000 0.000000 0.000000 11.099884 58.451776 -3.681469
8.697562 13.295177 -5.384198 501.704068 -105.959254 -486.726935 0.000000 0.000000 0.000000 -20.873007 5.720164 -96.950941 9.273960 16.976840 57.027059 0.205205 1.319152 8.094931 0.492937 -4.428298 -12.296117 0.000000 0.000000 0.000000 -5.691337 -26.438803 6.872856 -9.759267 -17.271229 58.679366 -0.090436 5.057781 -6.074474 -0.574655 4.818919 -13.399410 6.325587 5.349032 4.071388 1.231284 6.875104 7.195237 -2.113768 3.621793 5.855786 -0.875566 3.204808 -3.882528 -8.993964 2.290399 -21.372439 -2.770476 1.530004 -5.704135 0.000000 0.000000 0.000000 59.085212 57.335283 -32.681172 9.866015 -16.529401 1.436887 32.511819 -41.475390 0.827252 0.000000 0.000000 0.000000 -7.125000 0.000000 0.000000 4.636733 28.985533 1.814433 0.000000 0.000000 0.000000 -7.904126 61.206414 57.030136 -15.792890 -25.232176 -3.561219 -20.281839 9.641187 27.642520 0.000000 0.000000 0.000000 7.125000 0.000000 0.000000 11.475163 58.787908 -3.900223
8.126715 13.107403 -5.372095 503.396285 -110.056259 -491.031070 0.000000 0.000000 0.000000 -19.723222 5.464535 -94.686231 10.475870 17.668668 61.067076 -0.031989 -3.206699 1.389304 0.075782 -1.768906 -4.867736 0.000000 0.000000 0.000000 -1.553902 -23.822268 14.636639 -9.329314 -17.015024 57.222062 -0.229195 0.906081 -8.771252 -0.145455 2.452662 -6.758608 5.329547 5.496060 3.221737 1.148126 7.110994 6.377587 -1.624719 3.689995 5.350592 -1.241327 2.264611 -4.488625 -7.534583 1.191015 -21.923810 -2.210096 0.927696 -5.852168 0.000000 0.000000 0.000000 56.664601 57.201660 -26.319638 9.371076 -15.749783 1.298964 32.599199 -40.714044 0.718974 0.000000 0.000000 0.000000 -7.125000 0.000000 0.000000 4.711247 29.112379 1.829519 0.000000 0.000000 0.000000 -4.948994 57.920006 50.241520 -13.692712 -22.293409 -2.710582 -20.290582 10.949673 27.998066 0.000000 0.000000 0.000000 7.125000 0.000000 0.000000 11.667367 59.145485 -4.066861
